<?xml version="1.0" standalone="no"?>
<!DOCTYPE svg PUBLIC "-//W3C//DTD SVG 20010904//EN"
 "http://www.w3.org/TR/2001/REC-SVG-20010904/DTD/svg10.dtd">
<svg version="1.0" xmlns="http://www.w3.org/2000/svg"
 width="554.000000pt" height="554.000000pt" viewBox="0 0 554.000000 554.000000"
 preserveAspectRatio="xMidYMid meet">
<metadata>
Created by potrace 1.14, written by Peter Selinger 2001-2017
</metadata>
<g transform="translate(0.000000,554.000000) scale(0.100000,-0.100000)"
fill="#000000" stroke="none">
<path d="M500 5534 c-63 -21 -101 -44 -142 -87 -75 -78 -77 -88 -77 -552 0
-220 -1 -402 -2 -405 -1 -3 -1 -9 0 -14 3 -13 3 -129 1 -141 -1 -5 -1 -14 0
-20 2 -11 2 -777 -1 -785 -1 -3 -1 -9 0 -14 3 -13 3 -129 1 -141 -1 -5 -1 -14
0 -20 2 -11 2 -777 -1 -785 -1 -3 -1 -9 0 -14 3 -13 3 -129 1 -141 -1 -5 -1
-14 0 -20 2 -11 2 -777 -1 -785 -1 -3 -1 -9 0 -14 5 -25 3 -137 -2 -142 -3 -3
-3 -12 -1 -19 3 -7 6 -138 7 -292 2 -271 3 -279 26 -323 27 -52 79 -110 98
-110 7 0 13 -4 13 -8 0 -5 19 -15 43 -23 36 -12 378 -14 2262 -14 l2220 0 46
22 c62 31 108 78 138 143 l25 55 0 2216 0 2216 -32 64 c-37 73 -94 122 -168
145 -40 12 -377 14 -2243 13 -1208 0 -2203 -3 -2211 -5z"/>
<path d="M186 522 c-11 -2 -16 -11 -14 -24 3 -18 11 -21 68 -22 l65 -1 0 -172
-1 -173 27 0 26 0 0 173 0 172 34 2 c19 0 50 1 71 2 34 1 45 17 26 37 -7 6
-272 11 -302 6z"/>
<path d="M568 523 c-10 -3 -18 -14 -19 -26 -1 -26 -1 -335 0 -358 1 -12 8 -15
25 -12 23 5 24 8 24 89 0 46 3 87 6 92 4 6 141 9 179 3 4 0 7 -41 7 -91 0 -89
0 -90 25 -90 23 0 25 3 26 53 1 28 1 56 -1 62 -2 10 -1 48 1 80 1 11 1 61 0
111 l-1 91 -25 -5 c-24 -4 -25 -7 -25 -84 l0 -79 -97 3 -97 3 1 77 c2 80 0 87
-29 81z"/>
<path d="M968 520 c-22 -6 -22 -7 -23 -194 0 -151 3 -190 14 -194 7 -3 52 -5
100 -4 139 1 137 0 138 22 2 22 3 22 -122 21 l-80 -1 2 53 c0 28 1 61 2 72 1
19 7 21 90 20 86 -1 90 0 94 22 4 23 3 23 -89 23 -56 0 -94 4 -95 10 -3 43 -1
89 5 98 4 7 34 11 74 11 108 -2 112 -1 112 21 0 11 -3 20 -7 21 -54 3 -197 3
-215 -1z"/>
<path d="M1438 522 c-30 -3 -38 -7 -38 -23 0 -20 4 -21 101 -22 l36 0 -1 -174
-1 -173 27 0 28 0 0 174 0 175 67 -1 c56 -1 67 2 69 16 1 9 -4 20 -12 23 -17
6 -217 10 -276 5z"/>
<path d="M1787 518 c-10 -6 -15 -374 -5 -384 5 -4 103 -7 206 -5 35 1 42 4 42
21 0 22 0 22 -123 21 l-78 0 3 72 3 72 87 -1 c75 0 87 2 91 17 3 10 2 20 -1
23 -3 3 -45 6 -94 6 l-88 0 0 59 0 59 91 0 c68 -1 93 3 100 13 4 8 5 17 0 22
-9 9 -219 15 -234 5z"/>
<path d="M2194 510 c-63 -30 -95 -86 -99 -172 -8 -141 75 -227 206 -214 80 7
115 33 102 73 -3 9 -13 6 -34 -9 -21 -15 -43 -22 -81 -22 -94 0 -140 51 -139
155 0 101 38 153 120 163 30 4 52 -1 85 -19 42 -22 44 -22 49 -5 15 56 -128
90 -209 50z"/>
<path d="M2493 517 c-3 -6 -7 -95 -7 -199 l-1 -188 28 0 27 0 -1 77 c0 43 0
85 0 93 1 13 16 15 89 14 48 -1 90 -2 94 -3 4 0 7 -31 7 -68 -2 -113 -2 -113
26 -113 l25 0 0 194 c0 153 -3 195 -13 199 -27 10 -36 -10 -38 -86 l-2 -77
-96 0 -96 0 2 79 c2 71 0 79 -17 84 -11 3 -23 0 -27 -6z"/>
<path d="M3302 514 c-93 -39 -80 -176 18 -199 14 -3 34 -7 45 -9 66 -13 98
-46 88 -87 -13 -50 -93 -69 -166 -41 -48 19 -69 4 -39 -26 36 -36 172 -41 212
-9 66 53 64 145 -4 185 -17 11 -57 24 -89 31 -36 8 -61 19 -67 31 -36 68 30
112 129 86 55 -14 68 -8 51 24 -7 13 -22 21 -43 22 -88 5 -107 4 -135 -8z"/>
<path d="M4115 522 l-31 -3 0 -194 1 -195 25 0 26 0 0 92 -1 93 75 0 c69 0 75
2 78 22 3 21 -1 22 -75 25 l-77 3 -2 40 c-2 73 -1 73 87 72 60 -2 80 1 84 12
3 8 1 19 -4 24 -9 9 -126 15 -186 9z"/>
<path d="M4790 520 l-35 -5 0 -192 -1 -193 27 0 27 0 -2 80 c-1 49 2 80 9 81
32 4 90 -3 101 -12 8 -6 28 -40 46 -76 31 -62 63 -90 82 -73 9 9 -46 122 -78
157 -19 23 -19 23 2 41 47 41 47 130 -1 166 -30 22 -116 35 -177 26z m147 -66
c18 -25 16 -65 -5 -92 -13 -16 -28 -23 -57 -23 -73 -2 -70 -5 -68 68 1 38 2
69 3 70 0 2 26 1 57 -1 40 -3 61 -10 70 -22z"/>
<path d="M5133 517 c-4 -7 -8 -93 -8 -191 -1 -182 5 -213 38 -200 10 4 13 49
13 199 0 177 -2 194 -18 198 -10 3 -21 0 -25 -6z"/>
<path d="M3722 378 c-29 -79 -59 -156 -67 -173 -17 -39 -25 -74 -17 -79 19
-10 47 15 61 55 l17 44 83 3 c93 3 104 -3 116 -65 5 -28 10 -33 35 -33 l29 0
-31 83 c-17 45 -43 116 -58 157 -53 144 -56 150 -87 150 -27 0 -30 -5 -81
-142z m109 17 c6 -16 10 -31 10 -32 0 -2 6 -18 14 -37 8 -20 15 -39 15 -43 0
-5 -31 -9 -69 -10 l-69 -2 11 32 c6 18 16 46 24 64 7 17 13 33 13 36 0 3 5 18
11 34 12 31 14 29 40 -42z"/>
<path d="M4485 508 c-99 -273 -127 -346 -136 -361 -9 -16 -6 -18 22 -15 28 3
33 8 47 51 l15 47 88 0 87 0 17 -50 c15 -44 20 -50 44 -50 l28 0 -64 173 c-36
94 -69 182 -74 195 -6 16 -17 22 -39 22 -17 0 -33 -6 -35 -12z m69 -131 c16
-45 31 -87 33 -93 3 -7 -20 -11 -67 -11 -38 1 -70 2 -70 4 0 2 7 20 16 41 8
20 15 37 14 37 -1 0 3 13 9 28 6 15 14 39 17 52 3 14 9 25 13 25 3 0 19 -37
35 -83z"/>
</g>
</svg>
